<?xml version="1.0" encoding="UTF-8" standalone="no"?>
<svg xmlns="http://www.w3.org/2000/svg" version="1.1" width="467" height="600" viewbox="0 0 467 600">
<title>undefined</title><path d="M233.5,0 L0,0 L0,300 L0,600 L233.5,600 L467,600 L467,300 L467,0 L233.5,0 " fill="rgb(241, 177, 193)" stroke="none" fill-rule="evenodd"></path><path d="M233.5,0 L0,0 L0,300 L0,600 L233.5,600 L467,600 L467,300 L467,0 L233.5,0 " fill="rgb(255, 255, 255)" stroke="none" fill-rule="evenodd"></path><path d="M386,6.5 C383.8,6.225,379.975,7.35,377.5,9 C374.833,10.778,369.944,17.296,365.5,25 C361.375,32.15,352.375,45.2,345.5,54 C338.625,62.8,330.75,73.6,328,78 C325.25,82.4,320.975,90.725,318.5,96.5 C316.025,102.275,312.65,111.275,311,116.5 C309.35,121.725,307.1,129.6,306,134 C304.9,138.4,304,144.925,304,148.5 C304,152.075,302.425,158.825,300.5,163.5 C298.575,168.175,296.55,172.9,296,174 C295.45,175.1,293.875,176.225,292.5,176.5 C291.125,176.775,288.425,176.55,286.5,176 C284.575,175.45,281.425,175.45,279.5,176 C277.575,176.55,274.875,178.575,273.5,180.5 C272.043,182.54,268.079,184.834,264,186 C260.15,187.1,254.75,188.225,252,188.5 C249.25,188.775,244.975,189.9,242.5,191 C240.025,192.1,234.625,193,230.5,193 C226.375,193,222.775,192.775,222.5,192.5 C222.225,192.225,221.775,192.225,221.5,192.5 C221.225,192.775,219.875,192.55,218.5,192 C217.125,191.45,214.2,190.55,212,190 C209.8,189.45,205.75,188.775,203,188.5 C200.25,188.225,196.425,187.325,194.5,186.5 C192.575,185.675,189.2,185.675,187,186.5 C184.8,187.325,181.875,188.45,180.5,189 C179.125,189.55,177.55,189.775,177,189.5 C176.45,189.225,175.325,187.2,174.5,185 C173.675,182.8,172.325,179.425,171.5,177.5 C170.675,175.575,170,171.75,170,169 C170,166.25,168.425,157.7,166.5,150 C164.575,142.3,160.75,129.925,158,122.5 C155.25,115.075,150.75,103.825,148,97.5 C145.25,91.175,139.625,81.05,135.5,75 C131.375,68.95,124.85,59.95,121,55 C117.15,50.05,110.625,42.4,106.5,38 C102.375,33.6,97.2,29.1,95,28 C92.8,26.9,89.2,25.775,87,25.5 C84.8,25.225,80.975,26.35,78.5,28 C76.025,29.65,73.325,32.125,72.5,33.5 C71.675,34.875,70.1,39.375,69,43.5 C67.9,47.625,66.55,53.7,66,57 C65.45,60.3,64.55,67.275,64,72.5 C63.45,77.725,62.55,85.6,62,90 C61.45,94.4,60.775,101.6,60.5,106 C60.225,110.4,59.55,117.6,59,122 C58.45,126.4,58.225,133.375,58.5,137.5 C58.775,141.625,59.45,146.8,60,149 C60.55,151.2,61.45,155.7,62,159 C62.55,162.3,63.675,167.475,64.5,170.5 C65.325,173.525,66.675,177.575,67.5,179.5 C68.325,181.425,68.325,185.7,67.5,189 C66.675,192.3,66.225,196.35,66.5,198 C66.775,199.65,67.45,202.575,68,204.5 C68.55,206.425,68.325,210.7,67.5,214 C66.503,217.986,66.839,222.014,68.5,226 C69.875,229.3,71.9,233.8,73,236 C74.1,238.2,77.025,244.275,79.5,249.5 C81.975,254.725,85.35,261.25,87,264 C88.65,266.75,90.225,270.35,90.5,272 C90.79,273.737,92.684,275.631,95,276.5 L99,278 L104,273 C106.75,270.25,109.225,268.45,109.5,269 C109.775,269.55,109.325,271.575,108.5,273.5 C107.675,275.425,106.55,279.25,106,282 C105.45,284.75,105,290.825,105,295.5 C105,300.175,104.775,306.025,104.5,308.5 C104.225,310.975,104,317.275,104,322.5 C104,327.725,103.775,334.025,103.5,336.5 C103.225,338.975,102.775,344.825,102.5,349.5 C102.225,354.175,102.45,359.8,103,362 C103.55,364.2,104,368.25,104,371 C104,373.75,104.675,377.575,105.5,379.5 C106.325,381.425,107.675,385.025,108.5,387.5 C109.325,389.975,110.225,394.025,110.5,396.5 C110.775,398.975,112.575,404.15,114.5,408 C116.425,411.85,120.025,418.6,122.5,423 C125.05,427.534,126.133,430.783,125,430.5 C123.9,430.225,122.1,429.325,121,428.5 C119.9,427.675,121.025,431.275,123.5,436.5 C125.975,441.725,128.675,448.25,129.5,451 C130.325,453.75,130.775,460.275,130.5,465.5 C130.225,470.725,130.9,477.25,132,480 L134,485 L130,495.5 C127.8,501.275,125.775,508.025,125.5,510.5 C125.225,512.975,124.325,516.575,123.5,518.5 C122.675,520.425,121.325,526.725,120.5,532.5 C119.675,538.275,118.1,543.675,117,544.5 C115.9,545.325,114.325,547.8,113.5,550 C112.675,552.2,112.45,554.675,113,555.5 C113.55,556.325,113.325,557.9,112.5,559 C111.675,560.1,110.55,563.025,110,565.5 C109.45,567.975,108.1,571.35,107,573 C105.9,574.65,104.1,576.225,103,576.5 C101.658,576.835,101.165,575.848,101.5,573.5 C101.775,571.575,101.1,572.7,100,576 C98.9,579.3,98,584.475,98,587.5 C98,590.525,97.55,594.125,97,595.5 C96.45,596.875,96.225,598.45,96.5,599 C96.775,599.55,122.2,600,153,600 L209,600 L206,597.5 C204.35,596.125,200.3,593.425,197,591.5 C193.7,589.575,190.325,587.325,189.5,586.5 C188.675,585.675,190.25,585.45,193,586 C195.75,586.55,200.7,588.125,204,589.5 C207.3,590.875,212.25,592.45,215,593 C217.75,593.55,221.125,593.775,222.5,593.5 C223.875,593.225,226.35,593.225,228,593.5 C229.65,593.775,233.025,593.775,235.5,593.5 C237.975,593.225,242.25,593.45,245,594 C247.75,594.55,251.575,594.55,253.5,594 C255.425,593.45,259.25,593,262,593 C264.75,593,267.225,593.225,267.5,593.5 C267.775,593.775,269.125,593.55,270.5,593 C271.875,592.45,273.45,590.875,274,589.5 C274.768,587.581,275.697,587.465,278,589 C279.65,590.1,282.8,590.775,285,590.5 C287.2,590.225,288.775,589.55,288.5,589 C288.225,588.45,286.65,586.65,285,585 C283.35,583.35,281.1,580.2,280,578 C278.9,575.8,277.775,572.875,277.5,571.5 C277.141,569.706,276.011,569.282,273.5,570 C271.575,570.55,268.875,570.55,267.5,570 C266.125,569.45,264.775,569.675,264.5,570.5 C264.225,571.325,264.45,571.775,265,571.5 C265.55,571.225,265.775,571.45,265.5,572 C265.225,572.55,265.225,573.225,265.5,573.5 C265.775,573.775,263.75,572.875,261,571.5 C258.25,570.125,253.525,569,250.5,569 C247.475,569,244.1,569.45,243,570 C241.9,570.55,240.775,570.1,240.5,569 C240.225,567.9,237.975,566.775,235.5,566.5 L231,566 L239,562.5 C243.4,560.575,248.8,558.1,251,557 C253.2,555.9,257.925,555,261.5,555 L268,555 L273.5,549 C277.554,544.578,278.606,542.474,277.5,541 C276.675,539.9,272.625,537.65,268.5,536 L261,533 L260.5,540 C260.225,543.85,260.225,547.45,260.5,548 C260.775,548.55,260.55,549.225,260,549.5 C259.45,549.775,257.875,546.4,256.5,542 C254.814,536.603,252.536,532.861,249.5,530.5 C247.025,528.575,243.2,526.55,241,526 C238.8,525.45,235.65,523.875,234,522.5 C232.35,521.125,228.525,519.55,225.5,519 C222.475,518.45,218.2,516.425,216,514.5 C213.53,512.339,212.191,509.852,212.5,508 C212.775,506.35,213.675,504.775,214.5,504.5 C215.325,504.225,216.45,504.9,217,506 C217.55,507.1,218.45,507.775,219,507.5 C219.55,507.225,219.325,504.975,218.5,502.5 C217.675,500.025,216.325,497.325,215.5,496.5 C214.675,495.675,213.55,495.675,213,496.5 C212.45,497.325,212.225,496.875,212.5,495.5 C212.775,494.125,214.575,492.1,216.5,491 C218.425,489.9,219.775,489.45,219.5,490 C219.225,490.55,221.475,488.525,224.5,485.5 C227.525,482.475,232.025,478.875,234.5,477.5 C236.975,476.125,240.8,474.55,243,474 C245.85,473.288,248.15,474.006,251,476.5 C253.2,478.425,255.45,480.675,256,481.5 C256.55,482.325,259.7,483.45,263,484 C266.3,484.55,269.225,485.675,269.5,486.5 C269.775,487.325,269.1,488.225,268,488.5 C266.867,488.783,266.217,490.733,266.5,493 C266.864,495.911,268.361,497.68,272,499.5 C274.75,500.875,277.675,502.225,278.5,502.5 C279.325,502.775,281.125,501.875,282.5,500.5 L285,498 L285.5,502.5 C285.775,504.975,285.325,508.575,284.5,510.5 C283.675,512.425,283.225,516.025,283.5,518.5 C283.865,521.783,285.217,523.676,288.5,525.5 C290.975,526.875,295.7,528.45,299,529 L305,530 L302.5,531.5 C301.125,532.325,299.775,533.675,299.5,534.5 C299.225,535.325,300.8,538.475,303,541.5 L307,547 L305,550.5 C303.9,552.425,302.325,555.575,301.5,557.5 C300.675,559.425,298.875,562.35,297.5,564 C296.125,565.65,293.875,567.675,292.5,568.5 C291.125,569.325,290.675,570.225,291.5,570.5 C292.325,570.775,291.875,571.9,290.5,573 C289.125,574.1,287.775,576.125,287.5,577.5 C287.225,578.875,288.35,581.35,290,583 C291.65,584.65,293.9,586.225,295,586.5 C296.1,586.775,299.7,586.1,303,585 C306.3,583.9,311.925,580.525,315.5,577.5 C319.075,574.475,324.475,570.2,327.5,568 C330.525,565.8,337.5,558.15,343,551 C348.5,543.85,354.575,537.1,356.5,536 L360,534 L356,541 C353.8,544.85,350.875,549.125,349.5,550.5 C348.125,551.875,345.65,554.8,344,557 C342.35,559.2,340.325,562.575,339.5,564.5 C338.675,566.425,335.075,570.25,331.5,573 C327.925,575.75,321.625,580.25,317.5,583 C313.375,585.75,307.525,589.125,304.5,590.5 C301.475,591.875,296.975,594.575,294.5,596.5 L290,600 L333,600 C361.303,600,376.171,599.316,376.5,598 C376.833,596.667,377.5,596.667,378.5,598 C379.325,599.1,382.475,600,385.5,600 L391,600 L390.5,596 L390,592 L393,594 C394.65,595.1,396.45,595.325,397,594.5 C397.55,593.675,397.55,594.575,397,596.5 L396,600 L411.5,600 L427,600 L428,587.5 L429,575 L424,560 C421.25,551.75,417.425,541.4,415.5,537 L412,529 L412.5,550 C412.775,561.55,412.325,570.775,411.5,570.5 C410.675,570.225,409.775,570.225,409.5,570.5 C409.225,570.775,407.875,570.55,406.5,570 C405.125,569.45,402.425,569.9,400.5,571 C398.575,572.1,394.75,575.025,392,577.5 C389.25,579.975,387.225,582.675,387.5,583.5 C387.775,584.325,387.55,585.225,387,585.5 C386.45,585.775,385.325,584.65,384.5,583 C383.675,581.35,382.775,580.45,382.5,581 C382.225,581.55,381.325,580.875,380.5,579.5 C379.675,578.125,379.225,575.65,379.5,574 C379.775,572.35,380.45,570.55,381,570 C381.55,569.45,382.225,569.45,382.5,570 C382.775,570.55,384.35,569.425,386,567.5 C387.65,565.575,390.125,563.325,391.5,562.5 C392.875,561.675,395.575,559.65,397.5,558 C399.425,556.35,401.675,552.525,402.5,549.5 C403.325,546.475,404.45,542.875,405,541.5 C405.55,540.125,406,535.85,406,532 C406,528.15,405.775,524.1,405.5,523 C405.225,521.9,405.225,519.2,405.5,517 C405.775,514.8,404.65,508.95,403,504 C401.35,499.05,397.525,489.6,394.5,483 C391.475,476.4,387.65,468.75,386,466 C384.295,463.158,382.784,456.9,382.5,451.5 C382.225,446.275,382,437.05,382,431 C382,423.459,383.258,416.855,386,410 C388.2,404.5,390.45,395.5,391,390 C391.55,384.5,392.45,377.75,393,375 C393.55,372.25,394.225,367.075,394.5,363.5 C394.775,359.925,394.775,354.975,394.5,352.5 C394.225,350.025,393.775,347.1,393.5,346 C393.225,344.9,392.55,344.45,392,345 C391.45,345.55,390.325,342.85,389.5,339 C388.675,335.15,387.325,330.875,386.5,329.5 C385.675,328.125,384.775,326.325,384.5,325.5 C384.225,324.675,385.125,324.9,386.5,326 C387.875,327.1,389.675,328.9,390.5,330 C391.325,331.1,391.55,326.375,391,319.5 C390.45,312.625,390,304.525,390,301.5 C390,298.475,390.225,293.975,390.5,291.5 C390.775,289.025,391.45,282.275,392,276.5 C392.55,270.725,393.675,265.1,394.5,264 C395.325,262.9,397.575,260.65,399.5,259 C402.021,256.839,403,254.321,403,250 C403,246.7,404.575,240.625,406.5,236.5 C408.425,232.375,411.125,225.175,412.5,220.5 C413.875,215.825,416.125,208.85,417.5,205 C418.875,201.15,420.225,195.975,420.5,193.5 C420.775,191.025,419.65,185.4,418,181 C416.35,176.6,414.1,169.85,413,166 C411.9,162.15,411.45,157.2,412,155 C412.55,152.8,414.125,147.4,415.5,143 C416.875,138.6,418.675,130.95,419.5,126 C420.325,121.05,421.225,114.3,421.5,111 C421.775,107.7,421.775,102.975,421.5,100.5 C421.225,98.025,420.775,92.85,420.5,89 C420.225,85.15,417.75,73.45,415,63 C412.25,52.55,409.325,42.425,408.5,40.5 C407.675,38.575,406.55,35.2,406,33 C405.45,30.8,403.65,26.075,402,22.5 C400.35,18.925,396.975,13.975,394.5,11.5 C392.025,9.025,388.2,6.775,386,6.5 M384.5,11.5 C386.425,11.775,389.575,12.9,391.5,14 L395,16 L391,17 C388.8,17.55,385.425,17.325,383.5,16.5 C381.575,15.675,378.875,15.225,377.5,15.5 C375.613,15.877,375.736,15.387,378,13.5 C379.65,12.125,382.575,11.225,384.5,11.5 M92,32.5 L95,33 L92.5,34 C91.125,34.55,89.55,34.775,89,34.5 C88.45,34.225,88.225,33.55,88.5,33 C88.775,32.45,90.35,32.225,92,32.5 M385,47 C386.65,47,389.35,48.35,391,50 C392.65,51.65,393.775,54.125,393.5,55.5 C393.225,56.875,393.675,59.575,394.5,61.5 C395.325,63.425,395.775,66.8,395.5,69 C395.225,71.2,395.225,77.05,395.5,82 C395.775,86.95,397.125,93.025,398.5,95.5 C400.259,98.667,400.407,100.444,399,101.5 C397.9,102.325,396.775,105.25,396.5,108 C396.225,110.75,394.2,116.375,392,120.5 C389.8,124.625,387.55,130.025,387,132.5 C386.45,134.975,384.875,138.125,383.5,139.5 C381.999,141.001,381.4,143.399,382,145.5 C382.55,147.425,382.775,149.675,382.5,150.5 C382.225,151.325,381.1,153.8,380,156 C378.9,158.2,377.55,160.675,377,161.5 C376.45,162.325,375.1,163.45,374,164 C372.9,164.55,371.1,166.125,370,167.5 L368,170 L366,166.5 C364.9,164.575,361.525,162.1,358.5,161 C355.475,159.9,350.3,159,347,159 C343.7,159,340.55,159.675,340,160.5 C339.45,161.325,338.775,161.775,338.5,161.5 C338.225,161.225,336.425,161.9,334.5,163 L331,165 L333.5,158 C335.5,152.4,335.5,151.3,333.5,152.5 C332.125,153.325,330.325,153.775,329.5,153.5 C328.675,153.225,329.35,149.625,331,145.5 C332.65,141.375,335.125,135.75,336.5,133 C337.875,130.25,339.45,126.65,340,125 C340.55,123.35,340.775,121.775,340.5,121.5 C340.225,121.225,340.45,120.55,341,120 C341.55,119.45,341.775,118.775,341.5,118.5 C341.225,118.225,341.225,117.775,341.5,117.5 C341.775,117.225,342.45,116.1,343,115 C343.55,113.9,345.575,111.425,347.5,109.5 C349.425,107.575,351.9,104.425,353,102.5 C354.1,100.575,354.325,98.55,353.5,98 C352.675,97.45,352.9,95.875,354,94.5 C355.1,93.125,356.675,90.425,357.5,88.5 C358.325,86.575,358.55,85.225,358,85.5 C357.45,85.775,357.45,85.55,358,85 C358.55,84.45,358.775,83.325,358.5,82.5 C358.225,81.675,358.9,79.875,360,78.5 C361.1,77.125,363.35,74.2,365,72 C366.65,69.8,368.45,67.325,369,66.5 C369.55,65.675,369.775,64.775,369.5,64.5 C369.225,64.225,369.225,63.55,369.5,63 C369.775,62.45,369.775,62.225,369.5,62.5 C369.225,62.775,368.775,62.55,368.5,62 C368.225,61.45,368.9,60.325,370,59.5 C371.1,58.675,372.675,56.875,373.5,55.5 C374.325,54.125,376.575,51.65,378.5,50 C380.425,48.35,383.35,47,385,47 M81,82 C81.55,82,81.775,82.45,81.5,83 C81.225,83.55,81.45,83.775,82,83.5 C82.55,83.225,83.9,83.225,85,83.5 C86.1,83.775,86.775,84.675,86.5,85.5 C86.225,86.325,86.675,86.325,87.5,85.5 C88.325,84.675,89.9,83.775,91,83.5 C92.198,83.2,94.202,85.405,96,89 C97.65,92.3,99.225,96.35,99.5,98 C99.775,99.65,100.9,101.675,102,102.5 C103.1,103.325,105.35,105.125,107,106.5 C108.65,107.875,110.675,110.8,111.5,113 C112.325,115.2,113.45,118.8,114,121 C114.55,123.2,116.8,126.8,119,129 C121.2,131.2,125.925,135.475,129.5,138.5 C133.075,141.525,136.9,146.25,138,149 C139.1,151.75,140.45,156.475,141,159.5 L142,165 L138,169 C135.8,171.2,134.225,173.225,134.5,173.5 C134.775,173.775,134.325,176.925,133.5,180.5 C132.675,184.075,131.1,187.225,130,187.5 C128.9,187.775,126.425,187.325,124.5,186.5 C122.289,185.553,121.184,184.079,121.5,182.5 C121.775,181.125,121.55,178.875,121,177.5 C120.412,176.03,118.764,175.206,117,175.5 C115.35,175.775,113.1,177.125,112,178.5 C110.9,179.875,108.65,181.9,107,183 L104,185 L100.5,181.5 C98.575,179.575,96.1,176.425,95,174.5 C93.9,172.575,92.325,168.975,91.5,166.5 C90.675,164.025,89.1,159.525,88,156.5 C86.9,153.475,84.875,149.425,83.5,147.5 C82.125,145.575,80.55,142.65,80,141 C79.45,139.35,78.325,135.525,77.5,132.5 C76.675,129.475,75.775,124.075,75.5,120.5 C75.225,116.925,76.125,111.75,77.5,109 C78.875,106.25,79.325,103.55,78.5,103 C77.675,102.45,77.225,101.775,77.5,101.5 C77.775,101.225,77.775,99.65,77.5,98 C77.225,96.35,77.225,93.2,77.5,91 C77.775,88.8,78.45,85.875,79,84.5 C79.55,83.125,80.45,82,81,82 M349.5,88.5 C349.775,88.775,350.45,88.775,351,88.5 C351.55,88.225,351.55,88.45,351,89 C350.45,89.55,349.775,90.45,349.5,91 C349.225,91.55,348.775,91.775,348.5,91.5 C348.225,91.225,345.975,91.9,343.5,93 C340.5,94.333,339.333,94.333,340,93 C340.55,91.9,342.8,90.325,345,89.5 C347.2,88.675,349.225,88.225,349.5,88.5 M392.5,150 C395.253,150.786,395.786,151.641,395,154 C394.45,155.65,392.875,157.225,391.5,157.5 L389,158 L391,155.5 C392.333,153.833,392.333,152.833,391,152.5 C389.9,152.225,389.225,151.775,389.5,151.5 C389.775,151.225,389.775,150.55,389.5,150 C389.225,149.45,390.575,149.45,392.5,150 M341.5,161.5 C342.325,161.775,343.225,163.125,343.5,164.5 C343.775,165.875,343.1,168.125,342,169.5 C340.9,170.875,337.75,172.675,335,173.5 C331.23,174.631,330.492,174.508,332,173 C333.1,171.9,335.35,168.75,337,166 C338.65,163.25,340.675,161.225,341.5,161.5 M350,169 C350.55,169,352.125,169.675,353.5,170.5 C354.875,171.325,356.9,172.675,358,173.5 C359.1,174.325,360.45,176.35,361,178 C361.55,179.65,361.55,180.775,361,180.5 C360.45,180.225,358.65,179.325,357,178.5 C355.35,177.675,352.425,176.325,350.5,175.5 C347.981,174.42,347.28,173.299,348,171.5 C348.55,170.125,349.45,169,350,169 M393.5,184 C394.325,185.65,398.15,188.8,402,191 C405.85,193.2,409.225,196.125,409.5,197.5 C409.775,198.875,409.1,201.125,408,202.5 C406.9,203.875,404.65,205.45,403,206 C401.35,206.55,398.875,206.325,397.5,205.5 C396.125,204.675,393.875,201.975,392.5,199.5 C390.924,196.663,390.37,192.413,391,188 L392,181 L393.5,184 M370.5,184.5 C371.325,184.775,371.55,187.7,371,191 C370.45,194.3,369.55,198.8,369,201 C368.295,203.819,367.852,204.262,367.5,202.5 C367.225,201.125,367.45,196.4,368,192 C368.55,187.6,369.675,184.225,370.5,184.5 M89.5,186.5 C90.325,186.775,93.025,188.575,95.5,190.5 C97.975,192.425,100.675,195.35,101.5,197 C102.325,198.65,102.55,201.125,102,202.5 C101.225,204.438,100.1,204.55,97,203 C94.122,201.561,92.299,198.896,90.5,193.5 C89.125,189.375,88.675,186.225,89.5,186.5 M291,188 C294.3,188,298.575,188.45,300.5,189 C302.425,189.55,303.775,190.45,303.5,191 C303.225,191.55,300.075,191.55,296.5,191 C292.925,190.45,288.875,189.55,287.5,189 C286.125,188.45,287.7,188,291,188 M214,192 C216.75,192.55,218.1,193.225,217,193.5 C215.9,193.775,212.975,194.225,210.5,194.5 C208.025,194.775,205.1,194.775,204,194.5 C202.737,194.184,203.289,193.447,205.5,192.5 C207.425,191.675,211.25,191.45,214,192 M290,198 C291.1,198,291.55,198.45,291,199 C290.45,199.55,289.325,201.8,288.5,204 C287.675,206.2,287.225,207.55,287.5,207 C287.775,206.45,288.225,207.35,288.5,209 C288.775,210.65,288.1,212.675,287,213.5 C285.9,214.325,283.875,214.775,282.5,214.5 C281.125,214.225,279.1,214.45,278,215 C276.9,215.55,276.225,215.55,276.5,215 C276.775,214.45,278.575,213.55,280.5,213 C282.527,212.421,283.579,211.369,283,210.5 C282.45,209.675,282.225,208.325,282.5,207.5 C282.775,206.675,284.125,204.2,285.5,202 C286.875,199.8,288.9,198,290,198 M336.5,198.5 C337.325,198.775,337.55,199.9,337,201 C336.263,202.474,336.789,202.737,339,202 C341.074,201.309,342.926,202.08,345,204.5 C346.65,206.425,349.575,208.45,351.5,209 C353.953,209.701,354.551,210.449,353.5,211.5 C352.675,212.325,349.3,213.45,346,214 C342.7,214.55,337.975,214.325,335.5,213.5 L331,212 L334,210.5 C335.65,209.675,336.775,208.55,336.5,208 C336.225,207.45,333.975,206.775,331.5,206.5 C328.836,206.204,327.408,205.388,328,204.5 C328.55,203.675,330.35,201.875,332,200.5 C333.65,199.125,335.675,198.225,336.5,198.5 M80.5,203 C80.775,203,81.225,204.35,81.5,206 C81.775,207.65,81.775,208.1,81.5,207 C81.225,205.9,80.55,205.225,80,205.5 C79.45,205.775,79.225,205.325,79.5,204.5 C79.775,203.675,80.225,203,80.5,203 M112.5,204 C112.775,204,114.8,205.8,117,208 C119.2,210.2,121.9,213.8,123,216 C124.1,218.2,124.775,220.9,124.5,222 C124.177,223.293,122.586,222.233,120,219 C117.8,216.25,115.1,211.75,114,209 C112.9,206.25,112.225,204,112.5,204 M93,209.5 C94.1,210.875,95.45,214.025,96,216.5 C96.55,218.975,96.775,221.45,96.5,222 C96.225,222.55,93.975,224.125,91.5,225.5 C88.518,227.156,85.482,227.494,82.5,226.5 L78,225 L80.5,221 C81.875,218.8,84.575,215.65,86.5,214 C88.425,212.35,90.225,210.1,90.5,209 C90.843,207.628,91.628,207.785,93,209.5 M275,210.5 C275.55,210.775,275.775,211.675,275.5,212.5 C275.225,213.325,274.325,215.575,273.5,217.5 C272.675,219.425,271.775,220.55,271.5,220 C271.225,219.45,271.675,216.975,272.5,214.5 C273.325,212.025,274.45,210.225,275,210.5 M347.5,215.5 C349.975,215.775,353.125,216.9,354.5,218 C355.875,219.1,358.125,221.125,359.5,222.5 C360.875,223.875,364.025,225.9,366.5,227 C368.975,228.1,370.775,229.675,370.5,230.5 C370.225,231.325,370.225,232.675,370.5,233.5 C370.775,234.325,368.975,235.45,366.5,236 L362,237 L365.5,239 C367.993,240.425,369.144,242.582,369.5,246.5 C369.775,249.525,369.55,253.575,369,255.5 C368.45,257.425,369.35,262.15,371,266 C372.65,269.85,374.225,275.475,374.5,278.5 C374.775,281.525,374.1,285.125,373,286.5 C371.9,287.875,370.1,292.6,369,297 C367.9,301.4,367.675,306.125,368.5,307.5 C369.325,308.875,369.775,312.25,369.5,315 C369.225,317.75,368.325,322.25,367.5,325 C366.675,327.75,364.65,330.9,363,332 C361.35,333.1,359.775,334.45,359.5,335 C359.225,335.55,360.35,335.55,362,335 C363.65,334.45,365.675,334.675,366.5,335.5 C367.557,336.557,366.524,337.59,363,339 C360.25,340.1,357.325,341.9,356.5,343 C355.675,344.1,353.875,345.225,352.5,345.5 L350,346 L352,342.5 C353.1,340.575,354.45,338.1,355,337 C355.55,335.9,356.45,335.225,357,335.5 C357.55,335.775,357.775,335.775,357.5,335.5 C357.225,335.225,357.9,333.65,359,332 C360.1,330.35,361.9,326.3,363,323 C364.1,319.7,364.55,317.675,364,318.5 C363.45,319.325,362.775,319.775,362.5,319.5 C362.225,319.225,361.775,319.225,361.5,319.5 C361.225,319.775,360.1,319.775,359,319.5 C357.9,319.225,354.975,319.9,352.5,321 C350.025,322.1,346.875,324.125,345.5,325.5 C344.125,326.875,341.875,328.45,340.5,329 L338,330 L341,331 C342.65,331.55,344.225,332.45,344.5,333 C344.775,333.55,344.1,333.55,343,333 C341.9,332.45,339.65,332.225,338,332.5 C336.35,332.775,332.075,332.55,328.5,332 C324.925,331.45,322.225,331.675,322.5,332.5 C322.775,333.325,323.45,334.675,324,335.5 C324.55,336.325,324.775,337.9,324.5,339 C324.225,340.1,323.775,341.45,323.5,342 C323.225,342.55,321.65,342.325,320,341.5 C318.35,340.675,314.975,336.4,312.5,332 C309.22,326.169,307.051,323.864,304.5,323.5 L301,323 L303.5,321.5 C304.875,320.675,306.225,317.75,306.5,315 C306.775,312.25,306.55,310.675,306,311.5 C305.45,312.325,304.1,312.775,303,312.5 C301.9,312.225,299.2,311.325,297,310.5 C294.684,309.631,292.79,307.737,292.5,306 C292.225,304.35,293.125,302.325,294.5,301.5 C295.875,300.675,297.225,297.975,297.5,295.5 C297.775,293.025,299.35,289.875,301,288.5 C302.65,287.125,304.675,284.65,305.5,283 C306.325,281.35,308.35,279.55,310,279 C311.65,278.45,314.125,277.55,315.5,277 C316.875,276.45,321.375,275.1,325.5,274 C329.625,272.9,335.7,271.55,339,271 C342.3,270.45,346.575,270.225,348.5,270.5 C350.425,270.775,354.25,271.225,357,271.5 C359.75,271.775,361.325,272.45,360.5,273 C359.675,273.55,359.45,274.675,360,275.5 C360.55,276.325,362.575,278.8,364.5,281 C366.425,283.2,368.675,284.55,369.5,284 C370.325,283.45,370.55,281.875,370,280.5 C369.45,279.125,367.65,276.875,366,275.5 C363.82,273.683,363.547,272.727,365,272 C366.431,271.285,366.288,270.573,364.5,269.5 C363.125,268.675,360.875,266.875,359.5,265.5 C358.125,264.125,355.65,261.65,354,260 C352.35,258.35,349.2,256.1,347,255 C344.8,253.9,341.425,251.65,339.5,250 C337.442,248.236,336.618,246.588,337.5,246 C338.325,245.45,338.775,244.775,338.5,244.5 C338.225,244.225,338.225,243.775,338.5,243.5 C338.775,243.225,338.55,242.55,338,242 C337.45,241.45,334.975,239.875,332.5,238.5 C330.025,237.125,328.225,235.325,328.5,234.5 C328.775,233.675,330.35,232.55,332,232 C333.65,231.45,337.25,230.1,340,229 C342.75,227.9,345.225,226.55,345.5,226 C345.775,225.45,344.425,224.325,342.5,223.5 C340.575,222.675,338.55,221.325,338,220.5 C337.45,219.675,338.35,218.1,340,217 C341.65,215.9,345.025,215.225,347.5,215.5 M128.5,241 C128.775,241,127.65,242.8,126,245 L123,249 L125.5,245 C126.875,242.8,128.225,241,128.5,241 M341.5,278.5 C337.925,278.225,332.525,278.9,329.5,280 C325.81,281.342,322.684,283.974,320,288 C317.8,291.3,315.325,296.475,314.5,299.5 C313.675,302.525,313.45,304.55,314,304 C314.55,303.45,316.125,304.575,317.5,306.5 C318.875,308.425,321.8,310.9,324,312 C326.2,313.1,331.375,314.45,335.5,315 C339.625,315.55,344.575,315.325,346.5,314.5 C348.425,313.675,351.575,311.425,353.5,309.5 C355.425,307.575,357.45,303.75,358,301 L359,296 L356.5,297.5 C355.125,298.325,352.2,300.8,350,303 L346,307 L348,300 C349.1,296.15,349.775,292.325,349.5,291.5 C349.225,290.675,348.775,289.775,348.5,289.5 C348.225,289.225,349.575,289.45,351.5,290 C353.425,290.55,354.775,291.45,354.5,292 C354.225,292.55,355.125,292.325,356.5,291.5 C358.077,290.554,358.631,288.892,358,287 C357.45,285.35,354.975,282.875,352.5,281.5 C350.025,280.125,345.075,278.775,341.5,278.5 M164,279 C165.65,279,169.25,280.35,172,282 C174.75,283.65,177.225,285.9,177.5,287 C177.775,288.1,179.575,289.45,181.5,290 C183.425,290.55,186.125,291.9,187.5,293 C188.875,294.1,189.55,295.675,189,296.5 C188.45,297.325,187.325,297.775,186.5,297.5 C185.675,297.225,185.225,297.675,185.5,298.5 C185.775,299.325,188.25,302.025,191,304.5 C193.75,306.975,197.35,309.225,199,309.5 C200.65,309.775,201.55,310.225,201,310.5 C200.45,310.775,198.65,313.25,197,316 C195.35,318.75,193.1,321.45,192,322 C190.9,322.55,188.2,322.325,186,321.5 C183.8,320.675,182.225,320.675,182.5,321.5 C182.775,322.325,182.775,324.35,182.5,326 C182.225,327.65,181.325,329.9,180.5,331 C179.675,332.1,178.1,334.125,177,335.5 C175.799,337.002,173.802,337.601,172,337 C170.35,336.45,167.425,335.1,165.5,334 C163.575,332.9,162.225,331.775,162.5,331.5 C162.775,331.225,162.775,330.325,162.5,329.5 C162.225,328.675,161.325,328.45,160.5,329 C159.675,329.55,157.2,330.45,155,331 C152.8,331.55,149.425,331.55,147.5,331 C145.575,330.45,142.2,329.775,140,329.5 C137.8,329.225,135.775,328.55,135.5,328 C135.225,327.45,136.35,326.325,138,325.5 C139.65,324.675,142.125,324.45,143.5,325 C144.875,325.55,148.475,325.775,151.5,325.5 C154.525,325.225,160.15,323.65,164,322 C167.85,320.35,172.35,317.425,174,315.5 C175.824,313.372,176.608,310.824,176,309 C175.45,307.35,174.1,303.975,173,301.5 C171.9,299.025,169.2,295.2,167,293 C164.8,290.8,161.2,288.325,159,287.5 C156.8,286.675,153.425,286.225,151.5,286.5 C149.575,286.775,145.975,287.675,143.5,288.5 C141.025,289.325,136.3,292.025,133,294.5 L127,299 L128.5,295 C129.325,292.8,132.025,289.2,134.5,287 C137.298,284.513,141.647,282.622,146,282 C149.85,281.45,154.8,280.55,157,280 C159.2,279.45,162.35,279,164,279 M343.5,290 C343.775,290,344.675,290.45,345.5,291 C346.325,291.55,346.775,294.025,346.5,296.5 C346.225,298.975,345.775,299.875,345.5,298.5 C345.203,297.016,343.375,295.797,341,295.5 L337,295 L340,292.5 C341.65,291.125,343.225,290,343.5,290 M145,297 C146.65,297,148.225,297.675,148.5,298.5 C148.775,299.325,148.55,302.25,148,305 L147,310 L145.5,307.5 C144.675,306.125,143.775,305.225,143.5,305.5 C143.225,305.775,142.325,305.775,141.5,305.5 C140.675,305.225,141.35,307.25,143,310 C144.65,312.75,147.8,315.675,150,316.5 C152.894,317.585,153.447,318.276,152,319 C150.9,319.55,148.65,319.55,147,319 C145.35,318.45,142.875,316.875,141.5,315.5 C140.125,314.125,137.875,312.1,136.5,311 C135.125,309.9,131.75,309.225,129,309.5 C126.06,309.794,125.236,310.206,127,310.5 C128.65,310.775,131.125,312.8,132.5,315 C133.875,317.2,136.35,319.9,138,321 L141,323 L136.5,323.5 L132,324 L128.5,319 C126.212,315.731,123.615,313.827,121,313.5 C117.822,313.103,117.616,312.897,120,312.5 C121.65,312.225,122.775,311.55,122.5,311 C122.225,310.45,122.9,309.325,124,308.5 C125.1,307.675,127.575,306.325,129.5,305.5 C131.425,304.675,133.9,303.325,135,302.5 C136.1,301.675,138.125,300.1,139.5,299 C140.875,297.9,143.35,297,145,297 M165,301.5 C166.65,302.325,168.225,303.45,168.5,304 C168.775,304.55,167.65,304.775,166,304.5 C164.35,304.225,162.775,303.1,162.5,302 C162.157,300.628,162.942,300.471,165,301.5 M244.5,308 C244.775,308,244.775,310.475,244.5,313.5 C244.225,316.525,244.225,318.775,244.5,318.5 C244.775,318.225,248.6,321.375,253,325.5 C258.419,330.58,261.968,332.839,264,332.5 C265.65,332.225,270.15,333.575,274,335.5 C277.85,337.425,284.15,341.25,288,344 C291.85,346.75,296.575,350.125,298.5,351.5 C300.425,352.875,301.55,354.225,301,354.5 C300.45,354.775,298.425,354.325,296.5,353.5 C294.575,352.675,291.425,352.225,289.5,352.5 C287.415,352.798,284.989,351.787,283.5,350 C282.125,348.35,278.75,346.1,276,345 C273.25,343.9,269.875,343.45,268.5,344 C266.571,344.772,266.456,345.799,268,348.5 C269.474,351.08,271.052,351.869,274,351.5 C276.2,351.225,279.125,351.675,280.5,352.5 C281.875,353.325,282.775,353.775,282.5,353.5 C282.225,353.225,280.875,353.45,279.5,354 C278.125,354.55,275.425,355.675,273.5,356.5 C271.575,357.325,270.225,358.225,270.5,358.5 C270.775,358.775,272.575,359.675,274.5,360.5 C276.425,361.325,278.9,363.125,280,364.5 C281.1,365.875,283.35,367.675,285,368.5 C286.65,369.325,288.675,371.8,289.5,374 C290.325,376.2,290.775,380.25,290.5,383 L290,388 L288,382.5 C286.794,379.184,284.61,376.404,282.5,375.5 C280.575,374.675,278.55,374.225,278,374.5 C277.45,374.775,276.325,374.775,275.5,374.5 C274.675,374.225,273.1,375.125,272,376.5 C270.9,377.875,270.45,378.55,271,378 C271.55,377.45,272.675,377.225,273.5,377.5 C274.325,377.775,276.125,378.675,277.5,379.5 C278.875,380.325,281.8,382.8,284,385 C286.2,387.2,289.35,390.8,291,393 C292.65,395.2,293.55,397.225,293,397.5 C292.45,397.775,293.35,399.125,295,400.5 C296.65,401.875,297.325,403.225,296.5,403.5 C295.675,403.775,295.225,404.225,295.5,404.5 C295.775,404.775,295.775,406.575,295.5,408.5 C295.179,410.747,292.673,413.611,288.5,416.5 C284.925,418.975,279.525,423.475,276.5,426.5 C273.475,429.525,269.875,433.35,268.5,435 C267.125,436.65,264.2,438.225,262,438.5 C259.8,438.775,255.975,440.35,253.5,442 C250.628,443.915,249.724,445.181,251,445.5 C252.1,445.775,252.775,446.45,252.5,447 C252.225,447.55,251.325,447.775,250.5,447.5 C249.675,447.225,249.225,447.225,249.5,447.5 C249.775,447.775,249.55,448.9,249,450 C248.45,451.1,247.55,447.95,247,443 L246,434 L251.5,432.5 C254.525,431.675,257.225,431.225,257.5,431.5 C257.775,431.775,259.125,431.325,260.5,430.5 C261.875,429.675,263.9,428.775,265,428.5 C266.1,428.225,266.55,427.325,266,426.5 C265.45,425.675,265.675,424.325,266.5,423.5 C267.325,422.675,270.25,420.65,273,419 C275.75,417.35,279.125,414.65,280.5,413 C282.044,411.147,282.427,409.235,281.5,408 C280.675,406.9,278.425,405.55,276.5,405 C273.813,404.232,273.348,403.536,274.5,402 C275.325,400.9,275.1,398.65,274,397 C272.9,395.35,270.65,393.775,269,393.5 C267.35,393.225,264.425,393.45,262.5,394 C260.575,394.55,256.75,394.775,254,394.5 C251.25,394.225,246.975,394.225,244.5,394.5 C242.025,394.775,238.425,394.55,236.5,394 C234.575,393.45,229.625,393,225.5,393 C221.375,393,216.2,393.9,214,395 C211.8,396.1,209.325,398.125,208.5,399.5 C207.675,400.875,206.1,403.35,205,405 C203.9,406.65,202.775,409.35,202.5,411 C202.189,412.867,203.322,414.944,205.5,416.5 C207.425,417.875,210.125,419.9,211.5,421 C212.875,422.1,215.575,423.225,217.5,423.5 C219.425,423.775,223.025,423.1,225.5,422 C228.106,420.842,232.105,416.843,235,412.5 C237.895,408.157,240.421,405.631,241,406.5 C241.55,407.325,241.55,409.125,241,410.5 C240.45,411.875,239.55,416.825,239,421.5 L238,430 L233.5,428.5 C231.025,427.675,227.65,427.225,226,427.5 C224.35,427.775,220.75,427.775,218,427.5 C215.25,427.225,210.525,425.875,207.5,424.5 C204.475,423.125,201.325,422.225,200.5,422.5 C199.675,422.775,199.9,423.45,201,424 C202.1,424.55,202.325,425.45,201.5,426 C200.675,426.55,198.65,427.225,197,427.5 C195.35,427.775,194.675,427.55,195.5,427 C196.325,426.45,197.225,425.55,197.5,425 C197.775,424.45,197.325,424.45,196.5,425 C195.631,425.579,195.421,425.369,196,424.5 C196.55,423.675,196.55,420.975,196,418.5 C195.45,416.025,195.675,409.725,196.5,404.5 C197.325,399.275,198.675,392.525,199.5,389.5 C200.325,386.475,202.35,382.425,204,380.5 C205.65,378.575,207.675,376.55,208.5,376 C209.325,375.45,210.225,375.225,210.5,375.5 C210.775,375.775,211.45,375.55,212,375 C212.55,374.45,213.225,374.225,213.5,374.5 C213.775,374.775,215.35,375.675,217,376.5 C218.65,377.325,219.55,378.45,219,379 C218.45,379.55,218.225,380.225,218.5,380.5 C218.775,380.775,218.325,381.45,217.5,382 C216.675,382.55,216.225,383.675,216.5,384.5 C216.775,385.325,217.225,385.775,217.5,385.5 C217.775,385.225,218.225,385.225,218.5,385.5 C218.775,385.775,220.575,385.55,222.5,385 C224.425,384.45,226.9,384.675,228,385.5 C229.1,386.325,230.9,386.775,232,386.5 C233.1,386.225,238.275,384.875,243.5,383.5 C248.725,382.125,254.8,381.225,257,381.5 C259.2,381.775,260.775,381.55,260.5,381 C260.225,380.45,260.225,380.225,260.5,380.5 C260.775,380.775,261.45,380.775,262,380.5 C262.55,380.225,263.45,379.775,264,379.5 C264.55,379.225,266.125,377.65,267.5,376 C268.875,374.35,269.775,372.1,269.5,371 C269.225,369.9,267.425,368.325,265.5,367.5 C263.575,366.675,260.875,366.225,259.5,366.5 C258.125,366.775,254.75,367.225,252,367.5 C249.25,367.775,243.85,367.55,240,367 C236.15,366.45,230.75,366.45,228,367 C225.25,367.55,221.2,369.35,219,371 C216.8,372.65,213.875,373.775,212.5,373.5 C211.125,373.225,208.425,373.45,206.5,374 L203,375 L204.5,372.5 C205.325,371.125,205.775,368.875,205.5,367.5 C205.225,366.125,205.675,363.875,206.5,362.5 C207.325,361.125,207.775,360.225,207.5,360.5 C207.225,360.775,206.1,360.775,205,360.5 C203.644,360.161,204.126,359.035,206.5,357 C208.425,355.35,211.8,353.1,214,352 L218,350 L215,349 C213.35,348.45,211.55,347.325,211,346.5 C210.421,345.631,211.473,344.579,213.5,344 C215.425,343.45,218.125,342.55,219.5,342 C220.875,341.45,222.45,340.1,223,339 C223.55,337.9,225.35,336.325,227,335.5 C228.65,334.675,230.45,332.425,231,330.5 C231.55,328.575,233.35,324.525,235,321.5 C236.65,318.475,239.125,315.1,240.5,314 C241.875,312.9,243.225,311.1,243.5,310 C243.775,308.9,244.225,308,244.5,308 M276,317 C276.55,317,278.35,318.35,280,320 C281.65,321.65,284.35,324.35,286,326 C287.65,327.65,290.125,330.125,291.5,331.5 C292.875,332.875,293.775,334.675,293.5,335.5 C293.225,336.325,291.65,336.775,290,336.5 C288.35,336.225,283.175,333.975,278.5,331.5 L270,327 L274,326.5 C276.2,326.225,277.775,325.775,277.5,325.5 C277.225,325.225,276.55,323.2,276,321 C275.45,318.8,275.45,317,276,317 M115,327 C116.1,327,118.575,329.7,120.5,333 C122.871,337.064,123.516,339.807,122.5,341.5 C121.675,342.875,121.225,343.775,121.5,343.5 C121.775,343.225,121.775,342.55,121.5,342 C121.225,341.45,120.1,339.875,119,338.5 C117.9,337.125,116.1,333.975,115,331.5 C113.667,328.5,113.667,327,115,327 M373.5,339 C373.775,339,375.35,340.125,377,341.5 C378.65,342.875,380.45,346.475,381,349.5 C381.55,352.525,382.675,356.125,383.5,357.5 C384.325,358.875,384.325,360.225,383.5,360.5 C382.675,360.775,381.325,362.575,380.5,364.5 C379.675,366.425,379.225,368.45,379.5,369 C379.775,369.55,379.775,370.225,379.5,370.5 C379.225,370.775,379.225,371.225,379.5,371.5 C379.775,371.775,379.55,373.125,379,374.5 C378.45,375.875,377.325,378.125,376.5,379.5 C375.675,380.875,373.65,383.575,372,385.5 C370.35,387.425,368.1,391.025,367,393.5 C365.9,395.975,363.65,398.675,362,399.5 C360.35,400.325,358.775,400.325,358.5,399.5 C358.225,398.675,356.65,398.225,355,398.5 C353.35,398.775,350.2,400.125,348,401.5 C345.8,402.875,343.55,403.775,343,403.5 C342.45,403.225,341.325,402.55,340.5,402 C339.675,401.45,339.45,400.775,340,400.5 C340.55,400.225,342.125,399.55,343.5,399 C344.875,398.45,346.675,397.1,347.5,396 C348.325,394.9,349.9,393.55,351,393 C352.1,392.45,353.225,391.55,353.5,391 C353.775,390.45,351.75,389.55,349,389 C346.25,388.45,344.9,387.775,346,387.5 C347.1,387.225,347.775,386.55,347.5,386 C347.225,385.45,344.975,384.1,342.5,383 C340.025,381.9,337.775,381.225,337.5,381.5 C337.225,381.775,335.2,382.45,333,383 C330.181,383.705,329.443,384.443,330.5,385.5 C331.325,386.325,333.35,387.225,335,387.5 C336.737,387.79,337.579,388.631,337,389.5 C336.45,390.325,334.875,390.775,333.5,390.5 C332.125,390.225,329.425,389.55,327.5,389 L324,388 L324.5,391.5 C324.884,394.187,324.652,394.536,323.5,393 C322.675,391.9,321.325,391.225,320.5,391.5 C319.675,391.775,319.225,392.45,319.5,393 C319.775,393.55,319.55,395.575,319,397.5 C318.45,399.425,318.9,403.25,320,406 C321.1,408.75,323.125,412.35,324.5,414 C325.902,415.683,329.854,417.439,333.5,418 C337.075,418.55,342.475,419.9,345.5,421 C348.525,422.1,352.35,424.125,354,425.5 C356.173,427.311,354.794,427.173,349,425 C344.6,423.35,338.3,421.775,335,421.5 L329,421 L330.5,427.5 C331.62,432.352,333.014,434.507,336,436 C338.2,437.1,342.25,438.225,345,438.5 C347.75,438.775,350.9,439.675,352,440.5 C353.1,441.325,355.575,442.9,357.5,444 C359.425,445.1,362.575,445.775,364.5,445.5 C366.425,445.225,367.775,445.45,367.5,446 C367.225,446.55,364.3,452.4,361,459 C357.7,465.6,354.1,472.35,353,474 C351.9,475.65,349.425,481.5,347.5,487 C345.575,492.5,341.975,499.475,339.5,502.5 C337.025,505.525,332.975,509.125,330.5,510.5 C327.566,512.13,324.608,512.478,322,511.5 C319.8,510.675,316.2,510.45,314,511 C311.8,511.55,309.325,511.775,308.5,511.5 C307.675,511.225,306.775,510.55,306.5,510 C306.225,509.45,304.425,506.975,302.5,504.5 C300.575,502.025,292.925,495.275,285.5,489.5 C278.075,483.725,268.625,477.2,264.5,475 C260.375,472.8,255.2,469.65,253,468 C250.8,466.35,248.775,464.1,248.5,463 C248.225,461.9,248.675,460.1,249.5,459 C250.325,457.9,252.35,455.425,254,453.5 C256.313,450.801,257.687,450.343,260,451.5 C261.65,452.325,262.775,453.225,262.5,453.5 C262.225,453.775,260.875,454.675,259.5,455.5 C258.125,456.325,256.55,457.675,256,458.5 C255.45,459.325,255.225,460.675,255.5,461.5 C255.775,462.325,257.35,463.225,259,463.5 C260.65,463.775,263.35,462.875,265,461.5 C266.65,460.125,268.225,459.675,268.5,460.5 C268.775,461.325,268.55,462.675,268,463.5 C267.45,464.325,267.225,465.225,267.5,465.5 C267.775,465.775,267.775,466.225,267.5,466.5 C267.225,466.775,268.125,467.225,269.5,467.5 C270.875,467.775,273.575,466.875,275.5,465.5 C277.425,464.125,279.675,462.55,280.5,462 C281.35,461.433,281.133,460.783,280,460.5 C278.667,460.167,278.667,459.5,280,458.5 C281.1,457.675,283.125,456.325,284.5,455.5 C285.875,454.675,286.325,454.45,285.5,455 C284.675,455.55,284.225,456.225,284.5,456.5 C284.775,456.775,285.225,459.025,285.5,461.5 C285.775,463.975,287.35,467.125,289,468.5 C290.65,469.875,291.55,471.675,291,472.5 C290.45,473.325,288.875,473.775,287.5,473.5 C286.125,473.225,283.65,472.1,282,471 C280.35,469.9,276.975,469.225,274.5,469.5 L270,470 L275.5,473.5 C278.525,475.425,282.575,477.45,284.5,478 C286.425,478.55,288.45,478.325,289,477.5 C289.55,476.675,290.45,475.775,291,475.5 C291.55,475.225,291.775,475.675,291.5,476.5 C291.225,477.325,291.225,477.775,291.5,477.5 C291.775,477.225,292.45,477.225,293,477.5 C293.55,477.775,294.225,477.775,294.5,477.5 C294.775,477.225,296.125,477.45,297.5,478 C298.97,478.588,299.794,480.236,299.5,482 C299.225,483.65,299.675,485.225,300.5,485.5 C301.325,485.775,302.9,485.325,304,484.5 C305.536,483.348,306.232,483.813,307,486.5 L308,490 L311,484.5 C312.65,481.475,313.775,477.875,313.5,476.5 C313.225,475.125,313.225,473.1,313.5,472 C313.775,470.9,314.9,468.2,316,466 C317.1,463.8,317.55,460.875,317,459.5 C316.45,458.125,316.225,454.525,316.5,451.5 C316.814,448.048,318.303,444.883,320.5,443 C322.425,441.35,325.35,440.225,327,440.5 C329.158,440.86,330.14,442.264,330.5,445.5 C330.775,447.975,331.9,451.35,333,453 C334.1,454.65,336.125,456.225,337.5,456.5 C339.079,456.816,339.816,456.263,339.5,455 C339.225,453.9,339.225,453.225,339.5,453.5 C339.775,453.775,340.225,453.775,340.5,453.5 C340.775,453.225,340.55,452.325,340,451.5 C339.45,450.675,339.225,448.425,339.5,446.5 L340,443 L333,440 C329.15,438.35,324.425,435.2,322.5,433 C320.575,430.8,317.425,427.65,315.5,426 C313.575,424.35,312.225,422.775,312.5,422.5 C312.775,422.225,313.45,420.875,314,419.5 C314.55,418.125,314.775,415.875,314.5,414.5 C314.225,413.125,313.55,410.2,313,408 C312.45,405.8,311.325,402.425,310.5,400.5 C309.675,398.575,308.775,394.975,308.5,392.5 C308.225,390.025,308.45,386.875,309,385.5 C309.55,384.125,309.55,381.425,309,379.5 C308.45,377.575,307.55,375.775,307,375.5 C306.45,375.225,306.225,374.775,306.5,374.5 C306.775,374.225,306.775,373.775,306.5,373.5 C306.225,373.225,306.225,372.775,306.5,372.5 C306.775,372.225,309.25,373.575,312,375.5 C315.613,378.029,316.723,378.306,316,376.5 C315.45,375.125,315.225,372.65,315.5,371 C315.775,369.35,317.125,367.325,318.5,366.5 C319.875,365.675,323.475,363.875,326.5,362.5 C329.525,361.125,332.225,358.875,332.5,357.5 C332.877,355.613,333.368,355.491,334.5,357 C335.325,358.1,335.775,360.35,335.5,362 C335.225,363.65,333.425,365.9,331.5,367 C329.2,368.315,328.685,369.171,330,369.5 C331.1,369.775,331.325,370.225,330.5,370.5 C329.675,370.775,329.225,371.225,329.5,371.5 C329.775,371.775,330.225,373.125,330.5,374.5 C330.775,375.875,331.225,376.775,331.5,376.5 C331.775,376.225,332.225,376.225,332.5,376.5 C332.775,376.775,333.9,377.675,335,378.5 C336.1,379.325,339.25,380.9,342,382 C344.75,383.1,349.25,383.55,352,383 C354.75,382.45,358.35,380.875,360,379.5 C361.65,378.125,364.125,375.425,365.5,373.5 C366.875,371.575,368.675,367.75,369.5,365 L371,360 L375.5,360.5 C377.975,360.775,379.775,360.775,379.5,360.5 C379.225,360.225,377.425,359.325,375.5,358.5 C373.575,357.675,369.975,357.225,367.5,357.5 C365.025,357.775,361.65,358.9,360,360 C358.35,361.1,356.775,361.55,356.5,361 C356.225,360.45,356.45,358.875,357,357.5 C357.55,356.125,359.575,353.875,361.5,352.5 C363.425,351.125,364.775,349.775,364.5,349.5 C364.225,349.225,364.45,348.325,365,347.5 C365.55,346.675,365.55,346.225,365,346.5 C364.45,346.775,366.025,345.2,368.5,343 C370.975,340.8,373.225,339,373.5,339 M289.5,358 C291.975,359.1,295.125,360.9,296.5,362 C297.917,363.133,298.133,363.783,297,363.5 C295.9,363.225,293.2,362.1,291,361 C288.8,359.9,286.55,358.325,286,357.5 C285.45,356.675,287.025,356.9,289.5,358 M116.5,365 C117.875,365.55,118.775,367.125,118.5,368.5 C118.225,369.875,117.325,370.775,116.5,370.5 C115.675,370.225,114.775,368.65,114.5,367 C114.103,364.616,114.514,364.205,116.5,365 M182.5,376 C182.775,376,182.775,377.125,182.5,378.5 C182.225,379.875,181.55,383.7,181,387 C180.45,390.3,179.55,395.7,179,399 C178.45,402.3,178.225,406.35,178.5,408 C178.775,409.65,178.325,413.25,177.5,416 C176.675,418.75,174.65,422.8,173,425 C171.35,427.2,169.325,432.6,168.5,437 C167.638,441.596,167.851,448.191,169,452.5 C170.1,456.625,170.775,460.9,170.5,462 C170.225,463.1,170.9,465.35,172,467 C173.1,468.65,174.675,472.7,175.5,476 C176.325,479.3,177.45,484.475,178,487.5 C178.55,490.525,179.675,494.575,180.5,496.5 C181.325,498.425,181.775,500.45,181.5,501 C181.225,501.55,182.125,501.775,183.5,501.5 C184.875,501.225,187.35,499.65,189,498 C190.65,496.35,194.025,493.2,196.5,491 C198.975,488.8,201.45,486.325,202,485.5 C202.55,484.675,206.6,481.3,211,478 C215.4,474.7,220.35,470.425,222,468.5 C223.65,466.575,227.025,464.775,229.5,464.5 C231.975,464.225,234.675,463.1,235.5,462 C236.325,460.9,236.325,460.225,235.5,460.5 C234.675,460.775,233.55,460.775,233,460.5 C232.45,460.225,232.675,459.1,233.5,458 C234.325,456.9,236.575,455.775,238.5,455.5 C240.425,455.225,242.45,455.675,243,456.5 C243.55,457.325,243.775,459.8,243.5,462 C243.118,465.06,241.707,466.588,237.5,468.5 C234.475,469.875,227.5,474.6,222,479 C216.5,483.4,207.5,491.95,202,498 C196.5,504.05,189.975,510.35,187.5,512 C185.025,513.65,180.975,515.225,178.5,515.5 L174,516 L177.5,518 C179.425,519.1,182.8,520.225,185,520.5 C187.2,520.775,191.025,519.875,193.5,518.5 C195.975,517.125,199.35,515.775,201,515.5 C202.65,515.225,204.225,514.55,204.5,514 C204.775,513.45,205.45,513.45,206,514 C206.55,514.55,204.525,517.025,201.5,519.5 C198.475,521.975,194.425,524.225,192.5,524.5 C190.575,524.775,186.525,524.325,183.5,523.5 C180.475,522.675,175.075,520.425,171.5,518.5 C167.742,516.476,163.313,512.469,161,509 C158.8,505.7,155.425,501.425,153.5,499.5 C151.575,497.575,148.65,493.75,147,491 C145.35,488.25,144.225,484.2,144.5,482 C144.775,479.8,144.55,475.75,144,473 C143.45,470.25,143.225,466.875,143.5,465.5 C143.775,464.125,143.325,462.775,142.5,462.5 C141.675,462.225,141.225,461.55,141.5,461 C141.775,460.45,143.125,459.55,144.5,459 C146.083,458.367,146.633,457.083,146,455.5 C145.45,454.125,144.55,451.2,144,449 C143.45,446.8,143.45,443.2,144,441 C144.55,438.8,144.775,436.775,144.5,436.5 C144.225,436.225,144.225,435.1,144.5,434 C144.775,432.9,146.125,430.875,147.5,429.5 C148.875,428.125,149.775,426.775,149.5,426.5 C149.225,426.225,149.225,424.875,149.5,423.5 C149.775,422.125,149.325,421.225,148.5,421.5 C147.675,421.775,146.1,422.675,145,423.5 C143.631,424.527,143.158,424.369,143.5,423 C143.775,421.9,143.775,418.975,143.5,416.5 C143.225,414.025,143.45,411.325,144,410.5 C144.55,409.675,145.675,411.475,146.5,414.5 C147.325,417.525,148.225,419.55,148.5,419 C148.775,418.45,150.575,418.9,152.5,420 C154.425,421.1,155.775,422.225,155.5,422.5 C155.225,422.775,155.9,424.125,157,425.5 C158.1,426.875,158.775,428.225,158.5,428.5 C158.225,428.775,158.225,429.45,158.5,430 C158.775,430.55,159,434.375,159,438.5 C159,442.743,157.914,447.303,156.5,449 C154.956,450.853,154.765,451.809,156,451.5 C157.1,451.225,159.125,449.875,160.5,448.5 C162.195,446.805,162.839,443.102,162.5,437 C162.168,431.025,161.16,427.496,159.5,426.5 C158.125,425.675,157.225,424.55,157.5,424 C157.775,423.45,157.55,423.225,157,423.5 C156.45,423.775,156.225,423.55,156.5,423 C156.775,422.45,157.225,422.225,157.5,422.5 C157.775,422.775,158.225,422.775,158.5,422.5 C158.775,422.225,159.675,422.675,160.5,423.5 C161.325,424.325,162.675,424.55,163.5,424 C164.325,423.45,164.55,422.55,164,422 C163.45,421.45,163.225,420.55,163.5,420 C163.775,419.45,165.125,417.875,166.5,416.5 C167.875,415.125,168.775,412.875,168.5,411.5 C168.225,410.125,168.225,406.3,168.5,403 C168.775,399.7,169.675,395.2,170.5,393 C171.325,390.8,174.25,386.075,177,382.5 C179.75,378.925,182.225,376,182.5,376 M164.5,383.5 C165.325,383.775,166.45,385.125,167,386.5 C167.567,387.917,167.35,388.567,166.5,388 C165.675,387.45,164.55,386.775,164,386.5 C163.45,386.225,162.775,387.575,162.5,389.5 C162.225,391.425,160.2,394.8,158,397 C155.8,399.2,153.55,401.225,153,401.5 C152.45,401.775,152.45,401.1,153,400 C153.55,398.9,154.9,396.2,156,394 C157.1,391.8,159.125,388.425,160.5,386.5 C161.875,384.575,163.675,383.225,164.5,383.5 M251.5,383 C250.675,383,249.775,383.45,249.5,384 C249.225,384.55,250.35,384.775,252,384.5 C253.65,384.225,255.225,384.225,255.5,384.5 C255.775,384.775,255.325,384.55,254.5,384 C253.675,383.45,252.325,383,251.5,383 M245,411 C245.55,411,248.925,412.8,252.5,415 C256.075,417.2,259.45,419.675,260,420.5 C260.55,421.325,260.55,422.225,260,422.5 C259.45,422.775,255.625,420.975,251.5,418.5 C247.375,416.025,243.1,414.45,242,415 C240.667,415.667,240.667,415.167,242,413.5 C243.1,412.125,244.45,411,245,411 M135.5,414.5 C137.425,415.875,138.325,417.225,137.5,417.5 C136.675,417.775,134.875,417.1,133.5,416 C132.125,414.9,131.225,413.55,131.5,413 C131.775,412.45,133.575,413.125,135.5,414.5 M289.5,420.5 C289.775,420.775,290.9,420.775,292,420.5 C293.1,420.225,293.775,420.45,293.5,421 C293.225,421.55,292.325,422.9,291.5,424 C290.675,425.1,289.1,427.125,288,428.5 C286.708,430.115,285.292,430.469,284,429.5 C282.9,428.675,282.225,427.1,282.5,426 C282.775,424.9,284.35,423.1,286,422 C287.65,420.9,289.225,420.225,289.5,420.5 M236.5,433.5 C237.875,433.775,239.675,435.125,240.5,436.5 C241.325,437.875,242,441.7,242,445 L242,451 L239,451.5 C237.35,451.775,236.45,451.55,237,451 C237.55,450.45,237.775,447.3,237.5,444 L237,438 L232,439 C229.25,439.55,224.75,439.775,222,439.5 C219.25,439.225,217.45,438.55,218,438 C218.55,437.45,222.375,436.1,226.5,435 C230.625,433.9,235.125,433.225,236.5,433.5 M159.5,455 C158.675,455,156.875,456.35,155.5,458 C154.125,459.65,152.775,461.675,152.5,462.5 C152.225,463.325,152.225,464.225,152.5,464.5 C152.775,464.775,152.775,465.225,152.5,465.5 C152.225,465.775,153.8,464.425,156,462.5 C158.2,460.575,160.225,458.1,160.5,457 C160.775,455.9,160.325,455,159.5,455 M221,463.5 C221.55,463.775,221.55,464.675,221,465.5 C220.45,466.325,219.775,466.775,219.5,466.5 C219.225,466.225,218.55,466.225,218,466.5 C217.45,466.775,217.675,466.1,218.5,465 C219.325,463.9,220.45,463.225,221,463.5 M232,487 C231.45,487,229.65,487.45,228,488 C226.35,488.55,224.775,489.675,224.5,490.5 C224.225,491.325,226.25,492.45,229,493 C231.75,493.55,236.25,493.55,239,493 C241.75,492.45,245.575,491.325,247.5,490.5 L251,489 L242,488 C237.05,487.45,232.55,487,232,487 M268.5,489 C268.775,489,270.575,489.45,272.5,490 C274.425,490.55,277.575,490.775,279.5,490.5 L283,490 L281,492.5 C279.9,493.875,276.75,495.45,274,496 L269,497 L268.5,493 C268.225,490.8,268.225,489,268.5,489 M139.5,493.5 C139.775,493.775,141.35,496.7,143,500 C144.65,503.3,147.35,510.5,149,516 C150.65,521.5,151.775,527.8,151.5,530 C151.225,532.2,150.775,535.8,150.5,538 C150.225,540.2,149.55,541.325,149,540.5 C148.45,539.675,146.875,536.75,145.5,534 C144.125,531.25,141.875,524.5,140.5,519 C139.125,513.5,138.225,505.4,138.5,501 C138.775,496.6,139.225,493.225,139.5,493.5 M376.5,496 C376.775,496,375.875,499.825,374.5,504.5 C373.125,509.175,371.55,512.775,371,512.5 C370.45,512.225,370.225,511.775,370.5,511.5 C370.775,511.225,370.775,510.775,370.5,510.5 C370.225,510.225,370.45,508.875,371,507.5 C371.55,506.125,372.9,502.975,374,500.5 C375.1,498.025,376.225,496,376.5,496 M315.5,514 C316.948,514,315.475,515.473,312,517.5 C308.123,519.762,305.292,520.469,304,519.5 C302.411,518.308,303.13,517.589,307.5,516 C310.525,514.9,314.125,514,315.5,514 M393.5,580 C393.775,580,394.9,582.475,396,585.5 C397.333,589.167,397.333,590.333,396,589 C394.9,587.9,393.775,585.425,393.5,583.5 C393.225,581.575,393.225,580,393.5,580 M431.5,583 C431.225,583,431.45,586.825,432,591.5 L433,600 L436,599.5 L439,599 L435.5,591 C433.575,586.6,431.775,583,431.5,583 M78.5,596 L78,593 L77,596.5 C76.45,598.425,76.675,599.775,77.5,599.5 C78.325,599.225,78.775,597.65,78.5,596 " fill="rgb(0, 0, 0)" stroke="none" fill-rule="evenodd"></path></svg>